<?xml version="1.0" encoding="utf-8"?>
<!-- Generator: Adobe Illustrator 23.0.5, SVG Export Plug-In . SVG Version: 6.00 Build 0)  -->
<svg version="1.1" id="Layer_1" xmlns="http://www.w3.org/2000/svg" xmlns:xlink="http://www.w3.org/1999/xlink" x="0px" y="0px"
	 viewBox="0 0 72 72" style="enable-background:new 0 0 72 72;" xml:space="preserve">
<style type="text/css">
	.st0{fill:#FFFFFF;}
	.st1{fill:#0077B5;}
</style>
<rect x="5.5" y="8" class="st0" width="62.2" height="57.3"/>
<path class="st1" d="M61.3,61.4H50.7V44.6c0-4-0.1-9.1-5.6-9.1c-5.6,0-6.4,4.3-6.4,8.8v17H28.1V27h10.2v4.7h0.1
	c1.4-2.7,4.9-5.5,10.1-5.5c10.8,0,12.8,7.1,12.8,16.4V61.4L61.3,61.4z M16,22.3c-3.4,0-6.2-2.8-6.2-6.2c0-3.4,2.8-6.2,6.2-6.2
	c3.4,0,6.2,2.8,6.2,6.2C22.2,19.5,19.4,22.3,16,22.3z M21.4,61.4H10.7V27h10.7C21.4,27,21.4,61.4,21.4,61.4z M66.7,0H5.3
	C2.4,0,0,2.3,0,5.2v61.6C0,69.7,2.4,72,5.3,72h61.4c2.9,0,5.3-2.3,5.3-5.2V5.2C72,2.3,69.6,0,66.7,0L66.7,0z"/>
</svg>
