<?xml version="1.0" encoding="utf-8"?>
<!-- Generator: Adobe Illustrator 23.0.5, SVG Export Plug-In . SVG Version: 6.00 Build 0)  -->
<svg version="1.1" id="Layer_1" xmlns="http://www.w3.org/2000/svg" xmlns:xlink="http://www.w3.org/1999/xlink" x="0px" y="0px"
	 viewBox="0 0 500 500" style="enable-background:new 0 0 500 500;" xml:space="preserve">
<style type="text/css">
	.st0{fill:#FFFFFF;}
</style>
<title></title>
<g id="Layer_2">
	<path class="st0" d="M293,81l-118,42c0,0-112,110-108,115s106,140,106,140l243,73l55-171l-37-160l-25-85L293,81z"/>
	<path class="st0" d="M-300-254"/>
</g>
<path d="M414.6,400L325,250l89.6-150l43.7,150L414.6,400z M216.7,385.4L104.2,275h179.2l89.6,150C372.9,425,216.7,385.4,216.7,385.4
	z M216.7,112.5l156.3-39.6l-89.6,150H102.1C102.1,225,216.7,112.5,216.7,112.5z M445.8,0L241.7,52.1l-31.2,52.1H150L0,250l150,145.8
	h60.4l29.2,52.1L443.7,500l54.2-197.9L468.8,250l31.3-52.1C500,197.9,445.8,0,445.8,0z"/>
</svg>
