<?xml version="1.0" encoding="utf-8"?>
<!-- Generator: Adobe Illustrator 23.0.5, SVG Export Plug-In . SVG Version: 6.00 Build 0)  -->
<svg version="1.1" id="Layer_1" xmlns="http://www.w3.org/2000/svg" xmlns:xlink="http://www.w3.org/1999/xlink" x="0px" y="0px"
	 viewBox="0 0 500 500" style="enable-background:new 0 0 500 500;" xml:space="preserve">
<style type="text/css">
	.st0{fill:#F0DB4F;}
</style>
<g>
	<path class="st0" d="M0.5,500.5c0-166.7,0-333.3,0-500c166.7,0,333.3,0,500,0c0,166.7,0,333.3,0,500
		C333.8,500.5,167.1,500.5,0.5,500.5z M297.5,412.9c7.6,14.8,18.1,26.6,32.3,34.5c28.4,15.8,58.3,17.5,88.8,7.5
		c14.8-4.8,26.6-14,34.4-27.7c6.4-11.2,8.2-23.4,7.7-36.2c-0.8-19.4-8.3-35.4-23.5-47.6c-10.8-8.7-23.2-14.8-35.8-20.4
		c-8.8-3.9-17.7-7.6-26.4-11.9c-4.1-2-8-4.8-11.4-7.9c-8.8-8.1-8.8-28.6,8.8-33.8c5.6-1.7,11.3-1.4,16.9-0.1
		c7.9,1.9,13.4,7.2,17.9,13.7c1.1,1.7,2.2,3.4,3.4,5.3c12.2-7.8,24.3-15.6,36.3-23.3c-0.1-0.4-0.1-0.7-0.2-0.9
		c-7.8-13.6-18-24.7-32.8-30.8c-18.1-7.4-36.7-8-55.5-3.3c-28.4,7.2-46.1,29.6-46.7,58.4c-0.5,24.4,9,43.8,29.5,57.2
		c7.7,5,16.1,9.2,24.4,13.2c9.4,4.6,19.2,8.3,28.5,12.9c4.9,2.4,9.6,5.6,13.7,9.2c5.8,5.2,7.1,12.3,5.5,19.7
		c-1.8,8.5-7.8,13.6-15.7,16c-19.5,5.8-37.2,2.4-51.6-12.7c-3.8-3.9-6.8-8.5-10.4-13C322.9,398.2,310.3,405.5,297.5,412.9z
		 M131.8,417.9c0.2,0.6,0.3,1,0.5,1.3c7.7,15.6,18.9,27.8,35,34.7c20.9,9,42.4,9.4,63.8,2.5c18.3-5.9,30.4-18.5,36.6-36.7
		c3.5-10.2,4.4-20.7,4.4-31.4c0-51.8,0-103.6,0-155.4c0-0.9-0.1-1.8-0.1-2.7c-15.7,0-31.2,0-46.9,0c0,1.4,0,2.6,0,3.8
		c0,51.2,0,102.5,0,153.7c0,4.1-0.3,8.2-0.9,12.3c-1,6.5-3.3,12.6-9.5,15.6c-9.9,4.8-20,5-29.6-1.2c-4.8-3.1-8-7.8-11-12.6
		c-1.4-2.3-2.8-4.6-4.2-7C157,402.6,144.4,410.2,131.8,417.9z"/>
	<path d="M297.5,412.9c12.8-7.4,25.5-14.7,37.9-21.9c3.6,4.5,6.7,9.1,10.4,13c14.5,15.1,32.1,18.4,51.6,12.7
		c7.9-2.3,13.9-7.5,15.7-16c1.6-7.4,0.3-14.5-5.5-19.7c-4.1-3.6-8.8-6.8-13.7-9.2c-9.4-4.6-19.2-8.3-28.5-12.9
		c-8.3-4-16.7-8.2-24.4-13.2c-20.5-13.4-29.9-32.8-29.5-57.2c0.6-28.8,18.3-51.2,46.7-58.4c18.7-4.7,37.4-4.1,55.5,3.3
		c14.8,6,25,17.2,32.8,30.8c0.1,0.2,0.1,0.4,0.2,0.9c-12,7.7-24,15.4-36.3,23.3c-1.2-1.9-2.3-3.6-3.4-5.3
		c-4.5-6.5-9.9-11.7-17.9-13.7c-5.6-1.4-11.3-1.6-16.9,0.1c-17.6,5.2-17.6,25.7-8.8,33.8c3.4,3.1,7.3,5.9,11.4,7.9
		c8.6,4.3,17.6,8,26.4,11.9c12.6,5.6,24.9,11.7,35.8,20.4c15.2,12.2,22.7,28.2,23.5,47.6c0.5,12.7-1.3,25-7.7,36.2
		c-7.8,13.7-19.6,22.9-34.4,27.7c-30.6,10-60.4,8.3-88.8-7.5C315.5,439.5,305.1,427.7,297.5,412.9z"/>
	<path d="M131.8,417.9c12.6-7.7,25.3-15.3,38.1-23.1c1.5,2.5,2.8,4.8,4.2,7c3,4.8,6.2,9.5,11,12.6c9.6,6.1,19.7,6,29.6,1.2
		c6.2-3,8.5-9.2,9.5-15.6c0.6-4.1,0.9-8.2,0.9-12.3c0.1-51.2,0-102.5,0-153.7c0-1.2,0-2.4,0-3.8c15.6,0,31.1,0,46.9,0
		c0,0.9,0.1,1.8,0.1,2.7c0,51.8,0,103.6,0,155.4c0,10.7-1,21.2-4.4,31.4c-6.2,18.2-18.3,30.8-36.6,36.7c-21.5,6.9-42.9,6.5-63.8-2.5
		c-16.1-7-27.3-19.1-35-34.7C132.1,418.8,132,418.5,131.8,417.9z"/>
</g>
</svg>
