<svg xmlns="http://www.w3.org/2000/svg" viewBox="0 0 115.2 64.8"><defs><style>.cls-1{fill:#62be6c;}.cls-2{fill:#ee225d;}.cls-3{fill:none;stroke:#fff;stroke-miterlimit:10;stroke-width:2.18px;}</style></defs><title>Artboard 1</title><g id="background"><rect class="cls-1" width="115.2" height="64.8"/></g><g id="thermometer"><path class="cls-2" d="M77.45,12.55a1.64,1.64,0,0,0-2.32,0l-27.95,28L45.36,40a6.74,6.74,0,0,0-1.66-.21,6.39,6.39,0,0,0-4.54,1.89A6.46,6.46,0,1,0,50,44.64l-.48-1.82,28-27.95A1.64,1.64,0,0,0,77.45,12.55Z"/><path class="cls-3" d="M53.13,43.81,79.76,17.18a4.91,4.91,0,0,0-6.94-6.94L46.19,36.87a9.73,9.73,0,1,0,6.94,6.94Z"/></g></svg>